<svg xmlns="http://www.w3.org/2000/svg" xmlns:xlink="http://www.w3.org/1999/xlink" preserveAspectRatio="xMidYMid" width="500" height="500" viewBox="0 0 500 500">
  <defs>
    <style>
      .cls-1 {
        fill: #ffb831;
        fill-rule: evenodd;
      }
    </style>
  </defs>
  <path d="M480.000,192.000 L482.000,208.000 L474.000,203.000 L480.000,192.000 ZM467.000,152.000 L482.000,163.000 L476.000,182.000 L467.000,152.000 ZM459.837,327.865 L405.283,411.172 L319.986,462.558 L220.840,471.847 L127.482,437.198 L58.404,365.474 L27.286,270.880 L40.292,172.153 L94.847,88.847 L180.144,37.460 L279.290,28.172 L372.647,62.821 L441.726,134.545 L472.843,229.138 L459.837,327.865 ZM418.000,73.000 L427.000,90.000 L406.000,74.000 L418.000,73.000 ZM395.000,77.000 L404.000,83.000 L398.000,84.000 L395.000,77.000 ZM365.000,53.000 L316.000,18.000 L376.000,48.000 L365.000,53.000 ZM371.000,32.000 L395.000,40.000 L388.000,42.000 L371.000,32.000 ZM276.000,17.000 L291.000,21.000 L283.000,23.000 L276.000,17.000 ZM211.000,24.000 L224.000,22.000 L218.000,28.000 L211.000,24.000 ZM156.000,28.000 L166.000,38.000 L114.000,66.000 L156.000,28.000 ZM60.000,85.000 L73.000,100.000 L53.000,120.000 L60.000,85.000 ZM26.000,204.000 L27.000,224.000 L13.000,205.000 L26.000,204.000 ZM22.000,281.000 L15.000,271.000 L24.000,270.000 L22.000,281.000 ZM38.000,335.000 L24.000,336.000 L26.000,304.000 L38.000,335.000 ZM32.000,395.000 L29.000,370.000 L59.000,367.000 L32.000,395.000 ZM111.000,433.000 L94.000,427.000 L98.000,417.000 L111.000,433.000 ZM135.000,455.000 L129.000,443.000 L168.000,462.000 L135.000,455.000 ZM231.000,484.000 L211.000,475.000 C211.000,475.000 285.337,472.259 290.000,472.000 C294.663,471.741 231.000,484.000 231.000,484.000 ZM332.000,472.000 L314.000,481.000 L316.000,474.000 L332.000,472.000 ZM375.000,455.000 L356.000,456.000 L375.000,445.000 L375.000,455.000 ZM436.000,382.000 L420.000,406.000 L436.000,373.000 L436.000,382.000 ZM455.000,357.000 L446.000,357.000 L458.000,346.000 L455.000,357.000 ZM480.000,297.000 L468.000,295.000 L474.000,275.000 L480.000,297.000 ZM480.000,222.000 L487.000,230.000 L480.000,236.000 L480.000,222.000 ZM485.000,252.000 L482.000,260.000 L476.000,253.000 L485.000,252.000 Z" class="cls-1"/>
</svg>
